<?xml version="1.0" encoding="UTF-8" standalone="no"?>
<!DOCTYPE svg PUBLIC "-//W3C//DTD SVG 1.1//EN"
 "http://www.w3.org/Graphics/SVG/1.1/DTD/svg11.dtd">
<!-- Generated by graphviz version 2.40.1 (20161225.0304)
 -->
<!-- Title: dependencies Pages: 1 -->
<svg width="1457pt" height="284pt"
 viewBox="0.00 0.00 1457.00 284.00" xmlns="http://www.w3.org/2000/svg" xmlns:xlink="http://www.w3.org/1999/xlink">
<g id="graph0" class="graph" transform="scale(1 1) rotate(0) translate(4 280)">
<title>dependencies</title>
<polygon fill="#ffffff" stroke="transparent" points="-4,4 -4,-280 1453,-280 1453,4 -4,4"/>
<text text-anchor="start" x="703.5091" y="-42.4" font-family="sans-serif" font-weight="bold" font-size="14.00" fill="#000000">Legend</text>
<polygon fill="#ffffb3" stroke="transparent" points="490.5,-10 490.5,-30 510.5,-30 510.5,-10 490.5,-10"/>
<text text-anchor="start" x="514.129" y="-15.4" font-family="sans-serif" font-size="14.00" fill="#000000"> &#160;Declarations</text>
<polygon fill="#8dd3c7" stroke="transparent" points="603.5,-10 603.5,-30 623.5,-30 623.5,-10 603.5,-10"/>
<text text-anchor="start" x="627.2251" y="-15.4" font-family="sans-serif" font-size="14.00" fill="#000000"> &#160;Module</text>
<polygon fill="#80b1d3" stroke="transparent" points="689.5,-10 689.5,-30 709.5,-30 709.5,-10 689.5,-10"/>
<text text-anchor="start" x="713.2812" y="-15.4" font-family="sans-serif" font-size="14.00" fill="#000000"> &#160;Bootstrap</text>
<polygon fill="#fdb462" stroke="transparent" points="786.5,-10 786.5,-30 806.5,-30 806.5,-10 786.5,-10"/>
<text text-anchor="start" x="810.1732" y="-15.4" font-family="sans-serif" font-size="14.00" fill="#000000"> &#160;Providers</text>
<polygon fill="#fb8072" stroke="transparent" points="882.5,-10 882.5,-30 902.5,-30 902.5,-10 882.5,-10"/>
<text text-anchor="start" x="906.2258" y="-15.4" font-family="sans-serif" font-size="14.00" fill="#000000"> &#160;Exports</text>
<g id="clust1" class="cluster">
<title>cluster_NgxRemoteDesktopModule</title>
<polygon fill="none" stroke="#000000" stroke-dasharray="1,5" points="8,-70 8,-268 1441,-268 1441,-70 8,-70"/>
</g>
<g id="clust2" class="cluster">
<title>cluster_NgxRemoteDesktopModule_declarations</title>
<polygon fill="none" stroke="#000000" points="16,-78 16,-130 1433,-130 1433,-78 16,-78"/>
</g>
<g id="clust12" class="cluster">
<title>cluster_NgxRemoteDesktopModule_exports</title>
<polygon fill="none" stroke="#000000" points="89,-208 89,-260 1237,-260 1237,-208 89,-208"/>
</g>
<!-- RemoteDesktopComponent -->
<g id="node1" class="node">
<title>RemoteDesktopComponent</title>
<polygon fill="#ffffb3" stroke="#000000" points="1424.5364,-122 1253.4636,-122 1253.4636,-86 1424.5364,-86 1424.5364,-122"/>
<text text-anchor="middle" x="1339" y="-99.8" font-family="Times,serif" font-size="14.00" fill="#000000">RemoteDesktopComponent</text>
</g>
<!-- NgxRemoteDesktopModule -->
<g id="node9" class="node">
<title>NgxRemoteDesktopModule</title>
<polygon fill="#8dd3c7" stroke="#000000" points="867.8599,-187 864.8599,-191 843.8599,-191 840.8599,-187 694.1401,-187 694.1401,-151 867.8599,-151 867.8599,-187"/>
<text text-anchor="middle" x="781" y="-164.8" font-family="Times,serif" font-size="14.00" fill="#000000">NgxRemoteDesktopModule</text>
</g>
<!-- RemoteDesktopComponent&#45;&gt;NgxRemoteDesktopModule -->
<g id="edge1" class="edge">
<title>RemoteDesktopComponent&#45;&gt;NgxRemoteDesktopModule</title>
<path fill="none" stroke="#000000" d="M1339,-122.2222C1339,-140.8285 1339,-167 1339,-167 1339,-167 877.8812,-167 877.8812,-167"/>
<polygon fill="#000000" stroke="#000000" points="877.8812,-163.5001 867.8812,-167 877.8811,-170.5001 877.8812,-163.5001"/>
</g>
<!-- ToolbarItemComponent -->
<g id="node2" class="node">
<title>ToolbarItemComponent</title>
<polygon fill="#ffffb3" stroke="#000000" points="1235.8075,-122 1084.1925,-122 1084.1925,-86 1235.8075,-86 1235.8075,-122"/>
<text text-anchor="middle" x="1160" y="-99.8" font-family="Times,serif" font-size="14.00" fill="#000000">ToolbarItemComponent</text>
</g>
<!-- ToolbarItemComponent&#45;&gt;NgxRemoteDesktopModule -->
<g id="edge2" class="edge">
<title>ToolbarItemComponent&#45;&gt;NgxRemoteDesktopModule</title>
<path fill="none" stroke="#000000" d="M1156.4322,-122.0336C1156.4322,-139.0597 1156.4322,-162 1156.4322,-162 1156.4322,-162 878.0753,-162 878.0753,-162"/>
<polygon fill="#000000" stroke="#000000" points="878.0754,-158.5001 868.0753,-162 878.0753,-165.5001 878.0754,-158.5001"/>
</g>
<!-- MessageComponent -->
<g id="node3" class="node">
<title>MessageComponent</title>
<polygon fill="#ffffb3" stroke="#000000" points="1066.3104,-122 935.6896,-122 935.6896,-86 1066.3104,-86 1066.3104,-122"/>
<text text-anchor="middle" x="1001" y="-99.8" font-family="Times,serif" font-size="14.00" fill="#000000">MessageComponent</text>
</g>
<!-- MessageComponent&#45;&gt;NgxRemoteDesktopModule -->
<g id="edge3" class="edge">
<title>MessageComponent&#45;&gt;NgxRemoteDesktopModule</title>
<path fill="none" stroke="#000000" d="M985.6243,-122.2396C985.6243,-137.5706 985.6243,-157 985.6243,-157 985.6243,-157 878.0758,-157 878.0758,-157"/>
<polygon fill="#000000" stroke="#000000" points="878.0759,-153.5001 868.0758,-157 878.0758,-160.5001 878.0759,-153.5001"/>
</g>
<!-- DisplayComponent -->
<g id="node4" class="node">
<title>DisplayComponent</title>
<polygon fill="#ffffb3" stroke="#000000" points="917.3795,-122 792.6205,-122 792.6205,-86 917.3795,-86 917.3795,-122"/>
<text text-anchor="middle" x="855" y="-99.8" font-family="Times,serif" font-size="14.00" fill="#000000">DisplayComponent</text>
</g>
<!-- DisplayComponent&#45;&gt;NgxRemoteDesktopModule -->
<g id="edge4" class="edge">
<title>DisplayComponent&#45;&gt;NgxRemoteDesktopModule</title>
<path fill="none" stroke="#000000" d="M830.2451,-122.1061C830.2451,-122.1061 830.2451,-140.991 830.2451,-140.991"/>
<polygon fill="#000000" stroke="#000000" points="826.7452,-140.9909 830.2451,-150.991 833.7452,-140.991 826.7452,-140.9909"/>
</g>
<!-- ErrorMessageComponent -->
<g id="node5" class="node">
<title>ErrorMessageComponent</title>
<polygon fill="#ffffb3" stroke="#000000" points="774.8445,-122 615.1555,-122 615.1555,-86 774.8445,-86 774.8445,-122"/>
<text text-anchor="middle" x="695" y="-99.8" font-family="Times,serif" font-size="14.00" fill="#000000">ErrorMessageComponent</text>
</g>
<!-- ErrorMessageComponent&#45;&gt;NgxRemoteDesktopModule -->
<g id="edge5" class="edge">
<title>ErrorMessageComponent&#45;&gt;NgxRemoteDesktopModule</title>
<path fill="none" stroke="#000000" d="M734.4961,-122.1061C734.4961,-122.1061 734.4961,-140.991 734.4961,-140.991"/>
<polygon fill="#000000" stroke="#000000" points="730.9962,-140.9909 734.4961,-150.991 737.9962,-140.991 730.9962,-140.9909"/>
</g>
<!-- DisconnectedMessageComponent -->
<g id="node6" class="node">
<title>DisconnectedMessageComponent</title>
<polygon fill="#ffffb3" stroke="#000000" points="597.0014,-122 390.9986,-122 390.9986,-86 597.0014,-86 597.0014,-122"/>
<text text-anchor="middle" x="494" y="-99.8" font-family="Times,serif" font-size="14.00" fill="#000000">DisconnectedMessageComponent</text>
</g>
<!-- DisconnectedMessageComponent&#45;&gt;NgxRemoteDesktopModule -->
<g id="edge6" class="edge">
<title>DisconnectedMessageComponent&#45;&gt;NgxRemoteDesktopModule</title>
<path fill="none" stroke="#000000" d="M534.125,-122.2396C534.125,-137.5706 534.125,-157 534.125,-157 534.125,-157 683.9611,-157 683.9611,-157"/>
<polygon fill="#000000" stroke="#000000" points="683.9611,-160.5001 693.9611,-157 683.9611,-153.5001 683.9611,-160.5001"/>
</g>
<!-- ConnectingMessageComponent -->
<g id="node7" class="node">
<title>ConnectingMessageComponent</title>
<polygon fill="#ffffb3" stroke="#000000" points="372.3571,-122 177.6429,-122 177.6429,-86 372.3571,-86 372.3571,-122"/>
<text text-anchor="middle" x="275" y="-99.8" font-family="Times,serif" font-size="14.00" fill="#000000">ConnectingMessageComponent</text>
</g>
<!-- ConnectingMessageComponent&#45;&gt;NgxRemoteDesktopModule -->
<g id="edge7" class="edge">
<title>ConnectingMessageComponent&#45;&gt;NgxRemoteDesktopModule</title>
<path fill="none" stroke="#000000" d="M313.625,-122.0336C313.625,-139.0597 313.625,-162 313.625,-162 313.625,-162 683.9123,-162 683.9123,-162"/>
<polygon fill="#000000" stroke="#000000" points="683.9123,-165.5001 693.9123,-162 683.9123,-158.5001 683.9123,-165.5001"/>
</g>
<!-- StatusBarComponent -->
<g id="node8" class="node">
<title>StatusBarComponent</title>
<polygon fill="#ffffb3" stroke="#000000" points="159.7674,-122 24.2326,-122 24.2326,-86 159.7674,-86 159.7674,-122"/>
<text text-anchor="middle" x="92" y="-99.8" font-family="Times,serif" font-size="14.00" fill="#000000">StatusBarComponent</text>
</g>
<!-- StatusBarComponent&#45;&gt;NgxRemoteDesktopModule -->
<g id="edge8" class="edge">
<title>StatusBarComponent&#45;&gt;NgxRemoteDesktopModule</title>
<path fill="none" stroke="#000000" d="M128.625,-122.2222C128.625,-140.8285 128.625,-167 128.625,-167 128.625,-167 684.0324,-167 684.0324,-167"/>
<polygon fill="#000000" stroke="#000000" points="684.0325,-170.5001 694.0324,-167 684.0324,-163.5001 684.0325,-170.5001"/>
</g>
<!-- RemoteDesktopComponent  -->
<g id="node10" class="node">
<title>RemoteDesktopComponent </title>
<polygon fill="#fb8072" stroke="#000000" points="1228.5358,-252 1053.4642,-252 1053.4642,-216 1228.5358,-216 1228.5358,-252"/>
<text text-anchor="middle" x="1141" y="-229.8" font-family="Times,serif" font-size="14.00" fill="#000000">RemoteDesktopComponent </text>
</g>
<!-- NgxRemoteDesktopModule&#45;&gt;RemoteDesktopComponent  -->
<g id="edge9" class="edge">
<title>NgxRemoteDesktopModule&#45;&gt;RemoteDesktopComponent </title>
<path fill="none" stroke="#000000" stroke-dasharray="5,2" d="M867.9643,-172C950.4708,-172 1061.9307,-172 1061.9307,-172 1061.9307,-172 1061.9307,-205.7333 1061.9307,-205.7333"/>
<polygon fill="#000000" stroke="#000000" points="1058.4308,-205.7333 1061.9307,-215.7333 1065.4308,-205.7333 1058.4308,-205.7333"/>
</g>
<!-- NgxRemoteDesktopModule&#45;&gt;RemoteDesktopComponent  -->
<g id="edge15" class="edge">
<title>NgxRemoteDesktopModule&#45;&gt;RemoteDesktopComponent </title>
<path fill="none" stroke="#000000" stroke-dasharray="1,5" d="M868.1718,-177C949.2799,-177 1057.7064,-177 1057.7064,-177 1057.7064,-177 1057.7064,-205.9648 1057.7064,-205.9648"/>
<polygon fill="#000000" stroke="#000000" points="1054.2065,-205.9648 1057.7064,-215.9648 1061.2065,-205.9649 1054.2065,-205.9648"/>
</g>
<!-- ToolbarItemComponent  -->
<g id="node11" class="node">
<title>ToolbarItemComponent </title>
<polygon fill="#fb8072" stroke="#000000" points="1035.3073,-252 880.6927,-252 880.6927,-216 1035.3073,-216 1035.3073,-252"/>
<text text-anchor="middle" x="958" y="-229.8" font-family="Times,serif" font-size="14.00" fill="#000000">ToolbarItemComponent </text>
</g>
<!-- NgxRemoteDesktopModule&#45;&gt;ToolbarItemComponent  -->
<g id="edge10" class="edge">
<title>NgxRemoteDesktopModule&#45;&gt;ToolbarItemComponent </title>
<path fill="none" stroke="#000000" stroke-dasharray="5,2" d="M868.0102,-182C885.6992,-182 899.0181,-182 899.0181,-182 899.0181,-182 899.0181,-205.8129 899.0181,-205.8129"/>
<polygon fill="#000000" stroke="#000000" points="895.5181,-205.8129 899.0181,-215.8129 902.5181,-205.813 895.5181,-205.8129"/>
</g>
<!-- ErrorMessageComponent  -->
<g id="node12" class="node">
<title>ErrorMessageComponent </title>
<polygon fill="#fb8072" stroke="#000000" points="862.8448,-252 699.1552,-252 699.1552,-216 862.8448,-216 862.8448,-252"/>
<text text-anchor="middle" x="781" y="-229.8" font-family="Times,serif" font-size="14.00" fill="#000000">ErrorMessageComponent </text>
</g>
<!-- NgxRemoteDesktopModule&#45;&gt;ErrorMessageComponent  -->
<g id="edge11" class="edge">
<title>NgxRemoteDesktopModule&#45;&gt;ErrorMessageComponent </title>
<path fill="none" stroke="#000000" stroke-dasharray="5,2" d="M781,-187.1061C781,-187.1061 781,-205.991 781,-205.991"/>
<polygon fill="#000000" stroke="#000000" points="777.5001,-205.9909 781,-215.991 784.5001,-205.991 777.5001,-205.9909"/>
</g>
<!-- DisconnectedMessageComponent  -->
<g id="node13" class="node">
<title>DisconnectedMessageComponent </title>
<polygon fill="#fb8072" stroke="#000000" points="681.0008,-252 470.9992,-252 470.9992,-216 681.0008,-216 681.0008,-252"/>
<text text-anchor="middle" x="576" y="-229.8" font-family="Times,serif" font-size="14.00" fill="#000000">DisconnectedMessageComponent </text>
</g>
<!-- NgxRemoteDesktopModule&#45;&gt;DisconnectedMessageComponent  -->
<g id="edge12" class="edge">
<title>NgxRemoteDesktopModule&#45;&gt;DisconnectedMessageComponent </title>
<path fill="none" stroke="#000000" stroke-dasharray="5,2" d="M693.7967,-182C668.7351,-182 648.0391,-182 648.0391,-182 648.0391,-182 648.0391,-205.8129 648.0391,-205.8129"/>
<polygon fill="#000000" stroke="#000000" points="644.5392,-205.8129 648.0391,-215.8129 651.5392,-205.813 644.5392,-205.8129"/>
</g>
<!-- ConnectingMessageComponent  -->
<g id="node14" class="node">
<title>ConnectingMessageComponent </title>
<polygon fill="#fb8072" stroke="#000000" points="453.3573,-252 254.6427,-252 254.6427,-216 453.3573,-216 453.3573,-252"/>
<text text-anchor="middle" x="354" y="-229.8" font-family="Times,serif" font-size="14.00" fill="#000000">ConnectingMessageComponent </text>
</g>
<!-- NgxRemoteDesktopModule&#45;&gt;ConnectingMessageComponent  -->
<g id="edge13" class="edge">
<title>NgxRemoteDesktopModule&#45;&gt;ConnectingMessageComponent </title>
<path fill="none" stroke="#000000" stroke-dasharray="5,2" d="M694.0874,-177C587.8297,-177 421.9641,-177 421.9641,-177 421.9641,-177 421.9641,-205.9648 421.9641,-205.9648"/>
<polygon fill="#000000" stroke="#000000" points="418.4641,-205.9648 421.9641,-215.9648 425.4641,-205.9649 418.4641,-205.9648"/>
</g>
<!-- StatusBarComponent  -->
<g id="node15" class="node">
<title>StatusBarComponent </title>
<polygon fill="#fb8072" stroke="#000000" points="236.7675,-252 97.2325,-252 97.2325,-216 236.7675,-216 236.7675,-252"/>
<text text-anchor="middle" x="167" y="-229.8" font-family="Times,serif" font-size="14.00" fill="#000000">StatusBarComponent </text>
</g>
<!-- NgxRemoteDesktopModule&#45;&gt;StatusBarComponent  -->
<g id="edge14" class="edge">
<title>NgxRemoteDesktopModule&#45;&gt;StatusBarComponent </title>
<path fill="none" stroke="#000000" stroke-dasharray="5,2" d="M693.8373,-172C533.2913,-172 207.1025,-172 207.1025,-172 207.1025,-172 207.1025,-205.7333 207.1025,-205.7333"/>
<polygon fill="#000000" stroke="#000000" points="203.6025,-205.7333 207.1026,-215.7333 210.6025,-205.7333 203.6025,-205.7333"/>
</g>
</g>
</svg>
